<svg width="395" height="427" viewBox="0 0 395 427" fill="none" xmlns="http://www.w3.org/2000/svg">
<path d="M140.444 73.6207L140.444 139.879C140.444 143.943 137.146 147.241 133.082 147.241C129.018 147.241 125.72 143.943 125.72 139.879L125.72 125.155L30.889 125.155C38.7222 156.805 77.3657 184.898 103.972 203.429C115.096 211.174 119.624 223.483 125.72 235.586C137.212 258.401 149.256 290.647 153.467 315.936L157.369 338.515C157.782 338.442 158.194 338.339 158.606 338.339C161.028 338.339 163.399 339.531 164.805 341.718C172.587 353.806 184.005 360.741 196.131 360.741C207.932 360.741 219.137 354.145 226.882 342.645C228.553 340.172 231.469 339.06 234.237 339.531L238.315 315.936C242.534 290.647 254.107 258.401 265.599 235.586C271.695 223.483 276.694 211.174 287.818 203.429C314.424 184.898 352.633 156.805 360.437 125.155L265.599 125.155L265.599 139.879C265.599 143.943 262.301 147.241 258.237 147.241C254.173 147.241 250.875 143.943 250.875 139.879L250.875 73.6207C250.875 70.1016 253.4 67.2967 256.698 66.5678C256.271 66.3764 255.808 66.2586 255.314 66.2586L240.524 66.2586C239.118 66.2586 237.859 65.3899 237.358 64.0794L230.57 46.3516C230.062 45.0411 228.803 44.1724 227.397 44.1724L195.895 44.1724L164.393 44.1724C162.987 44.1724 161.728 45.0411 161.22 46.3516L154.432 64.0794C153.931 65.3899 152.672 66.2586 151.266 66.2586L136.476 66.2586C135.931 66.2586 135.438 66.4132 134.981 66.6414C138.103 67.4954 140.444 70.2268 140.444 73.6207Z" fill="#3E4757"/>
<path d="M125.72 88.2859C125.654 88.2933 125.595 88.3374 125.528 88.3448L33.5541 95.7363C31.5516 95.8983 30.013 97.5695 30.013 99.572L30.013 110.431L125.72 110.431L125.72 88.2859V88.2859Z" fill="#38454F"/>
<path d="M361.306 110.431L361.306 99.572C361.306 97.5695 359.767 95.8983 357.765 95.7364L266.254 88.3522C266.019 88.3301 265.827 88.1976 265.599 88.1534L265.599 110.431L361.306 110.431Z" fill="#38454F"/>
<path d="M250.875 73.6207L250.875 139.879C250.875 143.943 254.173 147.241 258.237 147.241C262.301 147.241 265.599 143.943 265.599 139.879L265.599 125.155L360.437 125.155C360.747 123.904 361.1 122.659 361.306 121.393L361.306 110.431L265.599 110.431L265.599 88.1534C261.66 87.4098 258.708 84.0454 258.708 79.9741L258.708 69.6525C258.708 68.2758 257.876 67.0979 256.698 66.5678C253.4 67.2966 250.875 70.1016 250.875 73.6207Z" fill="#546A79"/>
<path d="M30.889 125.155L125.72 125.155L125.72 139.879C125.72 143.943 129.018 147.241 133.082 147.241C137.146 147.241 140.444 143.943 140.444 139.879L140.444 73.6207C140.444 70.2268 138.103 67.4954 134.981 66.6414C133.87 67.2009 133.082 68.32 133.082 69.6525L133.082 79.9668C133.082 84.2147 129.909 87.7485 125.72 88.2859L125.72 110.431L30.0129 110.431L30.0129 121.393C30.2264 122.659 30.5798 123.904 30.889 125.155Z" fill="#546A79"/>
<path d="M7.92665 390.19L19.6029 390.19L37.3749 407.962L37.3749 419.638C37.3749 423.702 40.6731 427 44.737 427C48.8009 427 52.0991 423.702 52.0991 419.638L52.0991 407.962L69.8711 390.19L81.5474 390.19C85.6112 390.19 88.9094 386.891 88.9094 382.828C88.9094 378.764 85.6112 375.466 81.5474 375.466L69.8711 375.466L52.0991 357.693L52.0991 346.017C52.0991 341.953 48.8009 338.655 44.737 338.655C40.6731 338.655 37.3749 341.953 37.3749 346.017L37.3749 357.693L19.6029 375.466L7.92665 375.466C3.86279 375.466 0.564581 378.764 0.564581 382.828C0.564581 386.891 3.86279 390.19 7.92665 390.19Z" fill="#F3D55B"/>
<path d="M81.5474 334.974C75.4484 334.974 70.5043 339.918 70.5043 346.017C70.5043 352.116 75.4484 357.06 81.5474 357.06C87.6463 357.06 92.5905 352.116 92.5905 346.017C92.5905 339.918 87.6463 334.974 81.5474 334.974Z" fill="#F3D55B"/>
<path d="M383.392 180.371C377.293 180.371 372.349 185.315 372.349 191.414C372.349 197.513 377.293 202.457 383.392 202.457C389.491 202.457 394.435 197.513 394.435 191.414C394.435 185.315 389.491 180.371 383.392 180.371Z" fill="#F3D55B"/>
<path d="M376.03 364.422C369.931 364.422 364.987 369.367 364.987 375.465C364.987 381.564 369.931 386.509 376.03 386.509C382.129 386.509 387.073 381.564 387.073 375.466C387.073 369.367 382.129 364.422 376.03 364.422Z" fill="#F3D55B"/>
<path d="M295.047 298.164C288.948 298.164 284.004 303.108 284.004 309.207C284.004 315.306 288.948 320.25 295.047 320.25C301.146 320.25 306.09 315.306 306.09 309.207C306.09 303.108 301.146 298.164 295.047 298.164Z" fill="#F3D55B"/>
<path d="M22.6509 195.095C16.5519 195.095 11.6078 200.039 11.6078 206.138C11.6078 212.237 16.5519 217.181 22.6509 217.181C28.7498 217.181 33.694 212.237 33.694 206.138C33.694 200.039 28.7498 195.095 22.6509 195.095Z" fill="#F3D55B"/>
<path d="M324.496 25.7672C318.397 25.7672 313.453 30.7114 313.453 36.8103C313.453 42.9093 318.397 47.8535 324.496 47.8535C330.595 47.8535 335.539 42.9093 335.539 36.8103C335.539 30.7114 330.595 25.7672 324.496 25.7672Z" fill="#F3D55B"/>
<path d="M37.375 18.4052C31.276 18.4052 26.3318 23.3493 26.3318 29.4483C26.3318 35.5472 31.276 40.4914 37.375 40.4914C43.4739 40.4914 48.4181 35.5472 48.4181 29.4483C48.4181 23.3493 43.4739 18.4052 37.375 18.4052Z" fill="#F3D55B"/>
<path d="M229.26 29.4482C233.324 29.4482 236.622 26.15 236.622 22.0862L236.622 14.7241C236.622 10.6602 233.324 7.36203 229.26 7.36203C225.196 7.36203 221.898 10.6602 221.898 14.7241L221.898 22.0862C221.898 26.15 225.196 29.4482 229.26 29.4482Z" fill="#E57E25"/>
<path d="M207.174 29.4482C211.238 29.4482 214.536 26.15 214.536 22.0862L214.536 7.36204C214.536 3.29818 211.238 -3.08059e-05 207.174 -3.11612e-05C203.11 -3.15165e-05 199.812 3.29817 199.812 7.36204L199.812 22.0862C199.812 26.15 203.11 29.4482 207.174 29.4482Z" fill="#E57E25"/>
<path d="M185.088 29.4482C189.152 29.4482 192.45 26.15 192.45 22.0862L192.45 7.36204C192.45 3.29818 189.152 -3.08059e-05 185.088 -3.11612e-05C181.024 -3.15165e-05 177.726 3.29817 177.726 7.36204L177.726 22.0862C177.726 26.15 181.024 29.4482 185.088 29.4482Z" fill="#E57E25"/>
<path d="M163.001 29.4482C167.065 29.4482 170.364 26.15 170.364 22.0862L170.364 14.7241C170.364 10.6602 167.065 7.36203 163.001 7.36203C158.938 7.36203 155.639 10.6602 155.639 14.7241L155.639 22.0862C155.639 26.15 158.938 29.4482 163.001 29.4482Z" fill="#E57E25"/>
<path d="M196.131 375.465C183.159 375.465 170.93 370.135 161.176 360.513L164.614 380.42C167.794 399.488 175.841 408.116 187.892 423.054C191.993 428.141 199.79 428.141 203.89 423.054C215.942 408.116 223.989 399.495 227.169 380.42L230.511 361.087C220.845 370.334 208.815 375.465 196.131 375.465Z" fill="#38454F"/>
<path d="M196.131 360.741C184.005 360.741 172.587 353.806 164.805 341.725C163.399 339.539 161.028 338.346 158.606 338.346C158.194 338.346 157.782 338.449 157.369 338.523L161.176 360.521C170.93 370.135 183.159 375.466 196.131 375.466C208.815 375.466 220.845 370.334 230.511 361.087L234.237 339.531C231.469 339.06 228.553 340.172 226.882 342.645C219.137 354.145 207.932 360.741 196.131 360.741Z" fill="#8697CB"/>
<path d="M162.53 132.517L228.789 132.517C232.853 132.517 236.151 129.219 236.151 125.155C236.151 121.091 232.853 117.793 228.789 117.793L162.53 117.793C158.466 117.793 155.168 121.091 155.168 125.155C155.168 129.219 158.466 132.517 162.53 132.517Z" fill="#546A79"/>
<path d="M162.53 169.328L228.789 169.328C232.853 169.328 236.151 166.029 236.151 161.966C236.151 157.902 232.853 154.603 228.789 154.603L162.53 154.603C158.466 154.603 155.168 157.902 155.168 161.966C155.168 166.029 158.466 169.328 162.53 169.328Z" fill="#546A79"/>
<path d="M228.789 191.414L162.53 191.414C158.466 191.414 155.168 194.712 155.168 198.776C155.168 202.84 158.466 206.138 162.53 206.138L228.789 206.138C232.853 206.138 236.151 202.84 236.151 198.776C236.151 194.712 232.853 191.414 228.789 191.414Z" fill="#546A79"/>
<path d="M169.892 103.069L221.427 103.069C225.491 103.069 228.789 99.7708 228.789 95.7069L228.789 80.9827C228.789 76.9189 225.491 73.6207 221.427 73.6207C217.363 73.6207 214.065 76.9189 214.065 80.9827L214.065 88.3448L177.254 88.3448L177.254 80.9827C177.254 76.9189 173.956 73.6207 169.892 73.6207C165.828 73.6207 162.53 76.9189 162.53 80.9827L162.53 95.7069C162.53 99.7708 165.828 103.069 169.892 103.069Z" fill="#546A79"/>
<path d="M103.972 203.429C115.096 211.174 119.624 223.483 125.72 235.586C137.205 258.386 149.234 290.596 153.46 315.877C158.591 266.728 158.761 155.082 54.4623 154.603C51.7825 154.589 49.3015 154.677 46.9088 154.81C62.6857 174.128 86.053 190.95 103.972 203.429Z" fill="#546A79"/>
<path d="M238.043 317.526L238.315 315.936C242.534 290.647 254.107 258.401 265.599 235.586C271.695 223.483 276.694 211.174 287.818 203.429C305.73 190.957 328.898 174.135 344.535 154.824C342.106 154.684 339.58 154.596 336.857 154.603C231.343 155.089 232.75 269.312 238.043 317.526Z" fill="#546A79"/>
</svg>
